<?xml version="1.0" encoding="UTF-8"?>
<svg version="1.1" xmlns="http://www.w3.org/2000/svg" width="347" height="347">
<path d="M0 0 C0.75870895 -0.00705963 1.51741791 -0.01411926 2.29911804 -0.02139282 C33.91987956 -0.24886433 33.91987956 -0.24886433 47.79296875 3.203125 C48.62070801 3.40180176 49.44844727 3.60047852 50.30126953 3.80517578 C63.09263616 6.94943548 74.98817394 11.38675219 86.79296875 17.203125 C87.78635254 17.68652344 87.78635254 17.68652344 88.79980469 18.1796875 C113.13474397 30.14649423 133.73127186 48.48955631 149.79296875 70.203125 C150.42936279 71.05704834 150.42936279 71.05704834 151.07861328 71.92822266 C169.56721802 97.09266591 181.80074367 129.99433127 181.99609375 161.41015625 C182.00315338 162.1688652 182.01021301 162.92757416 182.01748657 163.70927429 C182.24495808 195.33003581 182.24495808 195.33003581 178.79296875 209.203125 C178.49495361 210.44473389 178.49495361 210.44473389 178.19091797 211.71142578 C175.04665827 224.50279241 170.60934156 236.39833019 164.79296875 248.203125 C164.30957031 249.19650879 164.30957031 249.19650879 163.81640625 250.20996094 C151.84959952 274.54490022 133.50653744 295.14142811 111.79296875 311.203125 C111.22368652 311.6273877 110.6544043 312.05165039 110.06787109 312.48876953 C84.90342784 330.97737427 52.00176248 343.21089992 20.5859375 343.40625 C19.82722855 343.41330963 19.06851959 343.42036926 18.28681946 343.42764282 C-13.33394206 343.65511433 -13.33394206 343.65511433 -27.20703125 340.203125 C-28.44864014 339.90510986 -28.44864014 339.90510986 -29.71533203 339.60107422 C-42.50669866 336.45681452 -54.40223644 332.01949781 -66.20703125 326.203125 C-66.86928711 325.88085938 -67.53154297 325.55859375 -68.21386719 325.2265625 C-92.54880647 313.25975577 -113.14533436 294.91669369 -129.20703125 273.203125 C-129.84342529 272.34920166 -129.84342529 272.34920166 -130.49267578 271.47802734 C-148.98128052 246.31358409 -161.21480617 213.41191873 -161.41015625 181.99609375 C-161.41721588 181.2373848 -161.42427551 180.47867584 -161.43154907 179.69697571 C-161.65902058 148.07621419 -161.65902058 148.07621419 -158.20703125 134.203125 C-158.00835449 133.37538574 -157.80967773 132.54764648 -157.60498047 131.69482422 C-154.46072077 118.90345759 -150.02340406 107.00791981 -144.20703125 95.203125 C-143.88476562 94.54086914 -143.5625 93.87861328 -143.23046875 93.19628906 C-131.26366202 68.86134978 -112.92059994 48.26482189 -91.20703125 32.203125 C-90.63774902 31.7788623 -90.0684668 31.35459961 -89.48193359 30.91748047 C-64.31749034 12.42887573 -31.41582498 0.19535008 0 0 Z " fill="#FEFEFE" transform="translate(163.20703125,1.796875)"/>
<path d="M0 0 C5.445 3.465 5.445 3.465 11 7 C11.99 7.495 11.99 7.495 13 8 C13.11675336 21.8991509 13.20461632 35.79822587 13.25906086 49.6977663 C13.28518766 56.15146672 13.32064294 62.60483841 13.37719727 69.05834961 C13.43140559 75.28289725 13.46139728 81.50712813 13.47438622 87.73189354 C13.48364611 90.11026181 13.50172789 92.48861217 13.52865028 94.86684608 C13.56479069 98.19066868 13.56995146 101.5131717 13.56762695 104.8371582 C13.59459152 106.32177299 13.59459152 106.32177299 13.62210083 107.83638 C13.60317892 110.32625322 13.55206293 112.57234595 13 115 C10.35619825 117.37290947 9.10432538 118.03154263 5.57250977 117.93066406 C2.28733042 116.74217553 -0.26848038 115.07568862 -3.16015625 113.109375 C-3.76479202 112.70208664 -4.3694278 112.29479828 -4.99238586 111.87516785 C-6.31725823 110.98154801 -7.63966305 110.08426162 -8.9598999 109.18380737 C-12.65371572 106.66491643 -16.36574618 104.17301844 -20.07421875 101.67578125 C-20.86950989 101.13905289 -21.66480103 100.60232452 -22.48419189 100.04933167 C-31.14576341 94.21006454 -39.87985157 88.48232894 -48.61288452 82.75076294 C-66.68811158 70.88480744 -84.65925633 58.87291304 -102.54052734 46.71655273 C-103.81623093 45.85158676 -103.81623093 45.85158676 -105.1177063 44.96914673 C-106.66502855 43.91993546 -108.2108831 42.86855314 -109.75460815 41.8140564 C-117.37808133 36.64924483 -125.17074725 31.89328297 -133 27 C-133 58.68 -133 90.36 -133 123 C-135.31 121.68 -137.62 120.36 -140 119 C-141.68048935 118.20417511 -141.68048935 118.20417511 -143.39492798 117.39227295 C-146.32068948 114.70550651 -146.42482232 114.22273834 -146.7215271 110.45684814 C-146.73892829 108.5458082 -146.72294744 106.63429491 -146.68115234 104.72363281 C-146.68246658 103.15730858 -146.68246658 103.15730858 -146.68380737 101.55934143 C-146.6796259 98.10650934 -146.63294396 94.65561785 -146.5859375 91.203125 C-146.57474744 88.80988629 -146.56620636 86.41663383 -146.56021118 84.02337646 C-146.53729838 77.72326737 -146.47835219 71.4239878 -146.4119873 65.12420654 C-146.3506187 58.69619977 -146.32320765 52.26805901 -146.29296875 45.83984375 C-146.22861288 33.22620852 -146.12735503 20.61314837 -146 8 C-143.69 6.68 -141.38 5.36 -139 4 C-138.24856468 4.50833122 -138.24856468 4.50833122 -137.48194885 5.02693176 C-132.17676243 8.61529221 -126.86994565 12.20123217 -121.56225586 15.78588867 C-119.59245188 17.11667266 -117.62303817 18.44803453 -115.65405273 19.7800293 C-104.78417074 27.1327775 -93.88200217 34.41904857 -82.84448242 41.51782227 C-76.97503119 45.29655033 -71.17623509 49.18009527 -65.375 53.0625 C-64.19962514 53.8477773 -63.02416824 54.63293183 -61.84863281 55.41796875 C-59.57220528 56.93838845 -57.29615642 58.45937176 -55.02050781 59.98095703 C-51.2659236 62.49068961 -47.50837924 64.99595605 -43.75 67.5 C-42.61325655 68.25777544 -41.47653711 69.01558692 -40.33984375 69.7734375 C-39.7969873 70.1353418 -39.25413086 70.49724609 -38.69482422 70.87011719 C-36.86035156 72.09309896 -35.02587891 73.31608073 -33.19140625 74.5390625 C-32.54977539 74.96678955 -31.90814453 75.3945166 -31.24707031 75.83520508 C-29.97418335 76.68384993 -28.70139418 77.53264148 -27.42871094 78.3815918 C-24.50036048 80.33472877 -21.57067417 82.28575959 -18.63671875 84.23046875 C-14.35569397 87.07204559 -10.0867006 89.90572503 -5.9375 92.9375 C-3.13617085 95.11368603 -3.13617085 95.11368603 0 96 C0 64.32 0 32.64 0 0 Z " fill="#05B5D0" transform="translate(236,111)"/>
<path d="M0 0 C3.14123781 1.50391794 5.9678713 3.46805624 8.828125 5.43774414 C10.18225073 6.35577328 11.53641786 7.27374135 12.890625 8.19165039 C13.55964844 8.64813965 14.22867188 9.10462891 14.91796875 9.57495117 C17.54185862 11.36110115 20.18434261 13.11870937 22.828125 14.87524414 C23.78460938 15.51333008 24.74109375 16.15141602 25.7265625 16.80883789 C28.64811149 18.7553107 31.5722895 20.69769521 34.49975586 22.63525391 C35.79496623 23.49888937 37.08495014 24.37041839 38.36938477 25.25 C41.20490094 27.18620716 43.92660431 28.92466549 47.00390625 30.46899414 C50.00744378 32.06634932 51.81939753 33.11382109 53.828125 35.87524414 C54.9962918 41.47964675 54.39973762 47.22898167 53.828125 52.87524414 C50.41311757 51.6223814 47.66532286 50.20582675 44.7421875 48.05102539 C39.76457536 44.48727673 34.67261647 41.12791623 29.5390625 37.79321289 C27.83983081 36.68581087 26.14061226 35.57838868 24.44140625 34.47094727 C21.80109231 32.7515982 19.15943018 31.03446985 16.51416016 29.32275391 C13.93498894 27.65250322 11.36159994 25.97365691 8.7890625 24.29321289 C7.98922943 23.77865036 7.18939636 23.26408783 6.36532593 22.7339325 C5.63681427 22.2561586 4.90830261 21.7783847 4.15771484 21.28613281 C3.19035904 20.65828133 3.19035904 20.65828133 2.20346069 20.01774597 C1.74959991 19.64072037 1.29573914 19.26369476 0.828125 18.87524414 C0.828125 18.21524414 0.828125 17.55524414 0.828125 16.87524414 C-5.5010908 20.32193408 -11.36993383 24.34570819 -17.296875 28.43774414 C-19.23608762 29.77367463 -21.17616265 31.10835433 -23.1171875 32.44165039 C-23.96812988 33.02889893 -24.81907227 33.61614746 -25.69580078 34.22119141 C-32.66279751 38.87524414 -32.66279751 38.87524414 -35.171875 38.87524414 C-35.171875 39.86524414 -35.171875 40.85524414 -35.171875 41.87524414 C-34.59145447 41.9918338 -34.01103394 42.10842346 -33.4130249 42.22854614 C-31.01649095 42.92008119 -29.38928655 43.84880766 -27.31347656 45.22241211 C-26.56057846 45.7167424 -25.80768036 46.21107269 -25.03196716 46.72038269 C-24.217043 47.26390884 -23.40211884 47.807435 -22.5625 48.36743164 C-21.69895401 48.93710159 -20.83540802 49.50677155 -19.94569397 50.09370422 C-17.10044381 51.97328395 -14.26098615 53.86140652 -11.421875 55.75024414 C-9.45613119 57.05297265 -7.49022773 58.35546027 -5.52416992 59.65771484 C0.60064026 63.71918359 6.71552786 67.79542477 12.828125 71.87524414 C13.82124695 72.53768127 14.8143689 73.20011841 15.83758545 73.88262939 C21.51898301 77.6734617 27.19525642 81.47178199 32.86413574 85.28131104 C34.63077945 86.46825063 36.39827613 87.65392165 38.16662598 88.83831787 C40.62341923 90.4852259 43.07601081 92.13819217 45.52734375 93.79321289 C46.25751205 94.28147049 46.98768036 94.76972809 47.73997498 95.27278137 C52.71342696 98.64584806 52.71342696 98.64584806 53.828125 100.87524414 C53.89994321 103.59284522 53.92112006 106.28383802 53.890625 109.00024414 C53.88611328 109.7543457 53.88160156 110.50844727 53.87695312 111.28540039 C53.86515999 113.14871541 53.84722442 115.01198969 53.828125 116.87524414 C46.18488932 112.93970274 39.14301706 108.17144176 32.03564453 103.36303711 C27.31328637 100.18032857 22.56798906 97.0317927 17.828125 93.87524414 C15.9686758 92.63577212 14.10929894 91.39619156 12.25 90.15649414 C11.32888428 89.54241699 10.40776855 88.92833984 9.45874023 88.2956543 C2.12744141 83.40812174 -5.20385742 78.52058919 -12.53515625 73.63305664 C-13.56543945 72.94622803 -14.59572266 72.25939941 -15.65722656 71.55175781 C-17.69964455 70.19009181 -19.74196316 68.82827673 -21.78417969 67.46630859 C-26.00358156 64.65256036 -30.22335655 61.83943921 -34.44921875 59.03540039 C-37.41385719 57.06780034 -40.3738772 55.09352433 -43.32861328 53.11108398 C-44.66693455 52.21378832 -46.00663568 51.31854965 -47.34716797 50.42456055 C-49.60610714 48.91522883 -51.85836282 47.39636612 -54.109375 45.87524414 C-55.16801758 45.17081177 -55.16801758 45.17081177 -56.24804688 44.45214844 C-57.92553797 43.31136214 -59.55433715 42.09955663 -61.171875 40.87524414 C-61.171875 40.21524414 -61.171875 39.55524414 -61.171875 38.87524414 C-59.83018494 37.75292969 -59.83018494 37.75292969 -57.92163086 36.51196289 C-57.20925766 36.04387207 -56.49688446 35.57578125 -55.76292419 35.09350586 C-54.9787764 34.58835449 -54.1946286 34.08320312 -53.38671875 33.56274414 C-52.57884415 33.03438965 -51.77096954 32.50603516 -50.93861389 31.96166992 C-48.33309115 30.2596138 -45.72144454 28.56723209 -43.109375 26.87524414 C-41.40517218 25.76522201 -39.70139109 24.65455211 -37.99804688 23.54321289 C-35.47681203 21.898439 -32.95526167 20.25417561 -30.43197632 18.61254883 C-17.54697426 10.32460589 -17.54697426 10.32460589 -5.00756836 1.53540039 C-2.171875 -0.12475586 -2.171875 -0.12475586 0 0 Z " fill="#0A97D9" transform="translate(170.171875,67.124755859375)"/>
<path d="M0 0 C10.43380545 6.55403318 20.71194559 13.3456013 31 20.125 C31.94865936 20.74973206 32.89731873 21.37446411 33.87472534 22.01812744 C50.65548346 33.07414287 67.34155003 44.26661982 83.97460938 55.54345703 C95.35577321 63.25494981 95.35577321 63.25494981 106.91699219 70.69213867 C109.64904365 72.40751604 112.32719845 74.194053 115 76 C112.40144174 78.72334901 109.8323923 80.93500394 106.68139648 82.98925781 C105.83629013 83.54373596 104.99118378 84.09821411 104.12046814 84.66949463 C103.21317459 85.25809265 102.30588104 85.84669067 101.37109375 86.453125 C100.42621597 87.07217712 99.4813382 87.69122925 98.50782776 88.32904053 C95.48733415 90.30724708 92.46275848 92.27908951 89.4375 94.25 C85.47558245 96.83506736 81.51629133 99.42410239 77.55859375 102.015625 C76.61503021 102.63111206 75.67146667 103.24659912 74.6993103 103.8807373 C68.94196692 107.65563756 63.3754911 111.54896322 58.00805664 115.86621094 C56 117 56 117 54.15722656 116.9597168 C50.93373466 115.52563501 48.059922 113.61501918 45.13671875 111.66015625 C44.46768021 111.21917099 43.79864166 110.77818573 43.10932922 110.32383728 C40.9651631 108.90868733 38.8263151 107.48572102 36.6875 106.0625 C35.29135533 105.13945994 33.89487387 104.21692906 32.49804688 103.29492188 C26.91711761 99.60711873 21.34727174 95.90287344 15.78759766 92.18310547 C15.11171097 91.73124374 14.43582428 91.27938202 13.73945618 90.81382751 C12.46687147 89.96256267 11.19499975 89.11023055 9.92399597 88.25660706 C7.36047012 86.5412619 4.841749 84.91702775 2.10742188 83.48339844 C0 82 0 82 -0.56762695 80.00708008 C-0.54144287 79.26868896 -0.51525879 78.53029785 -0.48828125 77.76953125 C-0.47216797 76.96708984 -0.45605469 76.16464844 -0.43945312 75.33789062 C-0.39755859 74.50451172 -0.35566406 73.67113281 -0.3125 72.8125 C-0.28994141 71.96751953 -0.26738281 71.12253906 -0.24414062 70.25195312 C-0.18524963 68.16721202 -0.09556798 66.08338196 0 64 C5.20364106 66.67577409 10.07316925 69.6716846 14.8671875 73.02734375 C16.01933587 73.82999764 17.17160331 74.63248065 18.32397461 75.43481445 C19.22416824 76.06306625 19.22416824 76.06306625 20.14254761 76.70401001 C25.23307096 80.25579273 30.33599998 83.78790975 35.46850586 87.27880859 C36.79806576 88.18782202 38.12318064 89.10336632 39.4440918 90.02490234 C41.38815246 91.37950121 43.34624327 92.71114715 45.30859375 94.0390625 C45.89305771 94.45346588 46.47752167 94.86786926 47.07969666 95.29483032 C49.95472877 97.20792213 51.67064891 98.01018638 55.1574707 97.90234375 C57.87510721 97.03964646 59.83278868 96.13105893 62.171875 94.5234375 C62.914375 94.02038086 63.656875 93.51732422 64.421875 92.99902344 C65.19015625 92.4630957 65.9584375 91.92716797 66.75 91.375 C67.5440625 90.83391602 68.338125 90.29283203 69.15625 89.73535156 C74.23622597 86.26361962 79.27824731 82.73461133 84.25 79.109375 C86 78 86 78 88 78 C83.8960391 73.52523633 79.34102947 70.37088642 74.2578125 67.08203125 C73.39290192 66.51601196 72.52799133 65.94999268 71.63687134 65.36682129 C69.77270268 64.14727673 67.9069975 62.93007826 66.03991699 61.71499634 C63.09698973 59.79421837 60.16500483 57.85770221 57.23535156 55.91674805 C48.317125 50.02006785 39.38452151 44.18020239 30.23446655 38.64790344 C26.58190112 36.43284476 22.95903981 34.17175883 19.33831787 31.90512085 C17.6259857 30.85150377 15.89918622 29.82101243 14.15826416 28.81533813 C0.96696868 21.18303757 0.96696868 21.18303757 -0.69555664 15.71038818 C-1.40633307 10.36101954 -0.89001333 5.29690769 0 0 Z " fill="#09D3C6" transform="translate(115,161)"/>
</svg>
