<?xml version="1.0" encoding="UTF-8"?>
<svg version="1.1" xmlns="http://www.w3.org/2000/svg" width="625" height="104">
<path d="M0 0 C0.78113159 -0.00686325 1.56226318 -0.0137265 2.36706543 -0.02079773 C4.9409418 -0.03905094 7.51420776 -0.03523041 10.08813477 -0.02954102 C11.88265684 -0.0341036 13.67717716 -0.03940941 15.47169495 -0.04542542 C19.23006291 -0.05435365 22.98821836 -0.05193676 26.74658203 -0.04199219 C31.55634758 -0.03050406 36.36537879 -0.05071286 41.17504787 -0.07990932 C44.88032164 -0.0982801 48.58541972 -0.09797711 52.29072762 -0.0922718 C54.0637013 -0.09211869 55.83668697 -0.09815485 57.60961723 -0.11056328 C60.0917721 -0.12548805 62.57257416 -0.11478627 65.0546875 -0.09765625 C65.78267044 -0.10732422 66.51065338 -0.11699219 67.26069641 -0.12695312 C72.33010863 -0.05391535 75.19115681 1.21500065 79.09204102 4.40405273 C83.27574805 9.94463772 84.21725522 13.65552523 84.25317383 20.51831055 C84.26062119 21.59937828 84.26062119 21.59937828 84.26821899 22.70228577 C84.28282614 25.08725948 84.28964103 27.47216663 84.29516602 29.85717773 C84.30091971 31.51763917 84.30667742 33.1781006 84.31243896 34.83856201 C84.32294556 38.3221467 84.32879011 41.80570834 84.33227539 45.28930664 C84.33775214 49.7424096 84.36176392 54.19520557 84.39024734 58.64821243 C84.40891953 62.07984288 84.41408181 65.51140015 84.41561127 68.94307709 C84.4186292 70.58404972 84.42662862 72.22502133 84.43979645 73.86594391 C84.45694936 76.16826849 84.45495431 78.46985334 84.44848633 80.7722168 C84.45395477 82.73387787 84.45395477 82.73387787 84.45953369 84.73516846 C83.98864268 89.43633597 82.75803593 93.41487301 79.66235352 97.11108398 C74.00601012 101.43742231 69.96359619 102.653123 62.85839844 102.67871094 C62.14875443 102.68382187 61.43911041 102.6889328 60.70796204 102.69419861 C58.37105785 102.70805371 56.03445005 102.70714056 53.69750977 102.70483398 C52.06472159 102.70872395 50.43193443 102.71305924 48.79914856 102.71781921 C45.37876098 102.72527323 41.95847662 102.72499668 38.53808594 102.71972656 C34.17030439 102.71394142 29.80294821 102.73084357 25.43523693 102.75407124 C22.06274473 102.76885754 18.69035373 102.7696735 15.31783485 102.76656151 C13.70839917 102.76707254 12.0989575 102.77226907 10.48955345 102.78237343 C-8.2257181 102.88543414 -8.2257181 102.88543414 -13.44367981 97.95210266 C-17.5953947 93.18206168 -18.06569975 89.948648 -18.10083008 83.85253906 C-18.10900757 83.07345184 -18.11718506 82.29436462 -18.12561035 81.4916687 C-18.1504751 78.90648163 -18.16698543 76.32134961 -18.18139648 73.73608398 C-18.18672016 72.85301764 -18.19204384 71.96995129 -18.19752884 71.06012535 C-18.2242685 66.38367963 -18.24363847 61.70726065 -18.25805664 57.03076172 C-18.27468259 52.20639742 -18.31944047 47.38271916 -18.37042809 42.55861378 C-18.40413491 38.84475446 -18.41563796 35.13105705 -18.42128372 31.41705894 C-18.42798956 29.63928692 -18.44319432 27.86152529 -18.46717453 26.08390236 C-18.49889621 23.58955217 -18.49885271 21.09703911 -18.49145508 18.60253906 C-18.51606308 17.50888786 -18.51606308 17.50888786 -18.54116821 16.3931427 C-18.47277047 10.73385079 -16.69620648 7.39367656 -12.90795898 3.40405273 C-8.87156088 0.07456694 -5.04634246 -0.03111868 0 0 Z " fill="#06A20D" transform="translate(17.907958984375,-0.404052734375)"/>
<path d="M0 0 C3.63 0 7.26 0 11 0 C12.58508436 3.65620396 14.16556661 7.31436455 15.74243164 10.97412109 C16.53244087 12.80532439 17.32572644 14.63511316 18.11914062 16.46484375 C22.32611709 26.23757168 26.13631517 36.06481044 30 46 C30.33 30.82 30.66 15.64 31 0 C34.3 0 37.6 0 41 0 C41 25.08 41 50.16 41 76 C37.37 76 33.74 76 30 76 C25.29574545 67.02323893 21.50382466 57.75184471 17.6875 48.375 C15.480625 42.97125 13.27375 37.5675 11 32 C10.67 46.52 10.34 61.04 10 76 C6.7 76 3.4 76 0 76 C0 50.92 0 25.84 0 0 Z " fill="#FFFFFF" transform="translate(453,15)"/>
<path d="M0 0 C3.63 0 7.26 0 11 0 C12.58508436 3.65620396 14.16556661 7.31436455 15.74243164 10.97412109 C16.53244087 12.80532439 17.32572644 14.63511316 18.11914062 16.46484375 C22.32611709 26.23757168 26.13631517 36.06481044 30 46 C30.33 30.82 30.66 15.64 31 0 C34.3 0 37.6 0 41 0 C41 25.08 41 50.16 41 76 C37.37 76 33.74 76 30 76 C25.29574545 67.02323893 21.50382466 57.75184471 17.6875 48.375 C15.480625 42.97125 13.27375 37.5675 11 32 C10.67 46.52 10.34 61.04 10 76 C6.7 76 3.4 76 0 76 C0 50.92 0 25.84 0 0 Z " fill="#FFFFFF" transform="translate(216,15)"/>
<path d="M0 0 C3.63 0 7.26 0 11 0 C12.58508436 3.65620396 14.16556661 7.31436455 15.74243164 10.97412109 C16.53244087 12.80532439 17.32572644 14.63511316 18.11914062 16.46484375 C22.32611709 26.23757168 26.13631517 36.06481044 30 46 C30.33 30.82 30.66 15.64 31 0 C34.3 0 37.6 0 41 0 C41 25.08 41 50.16 41 76 C37.37 76 33.74 76 30 76 C25.29574545 67.02323893 21.50382466 57.75184471 17.6875 48.375 C15.480625 42.97125 13.27375 37.5675 11 32 C10.67 46.52 10.34 61.04 10 76 C6.7 76 3.4 76 0 76 C0 50.92 0 25.84 0 0 Z " fill="#FFFFFF" transform="translate(135,15)"/>
<path d="M0 0 C6.18823091 4.52797383 8.85764998 9.51437771 10.5625 16.875 C10.75 19.9375 10.75 19.9375 10.5625 21.875 C7.81171116 22.79192961 6.20301087 22.98386083 3.375 22.9375 C1.4878125 22.9065625 1.4878125 22.9065625 -0.4375 22.875 C-1.4275 19.905 -2.4175 16.935 -3.4375 13.875 C-9.00247008 12.80007023 -9.00247008 12.80007023 -14.4375 13.875 C-16.75818605 15.82588592 -16.75818605 15.82588592 -17.125 19.3125 C-16.77938991 22.96625954 -16.77938991 22.96625954 -14.1875 25 C-11.09437039 26.73391588 -7.79153434 27.94495 -4.5 29.25 C2.36761272 32.05328112 6.82154944 34.78621675 10.5 41.3125 C12.79512139 48.71105903 12.82225196 58.14425983 10.375 65.5 C7.35244859 71.12819918 3.64853742 74.81009445 -2.4375 76.875 C-9.10989055 77.49628126 -15.85199549 78.06412838 -21.4375 73.875 C-28.05064275 67.26185725 -29.82309665 60.02749126 -30.4375 50.875 C-27.68671116 49.95807039 -26.07801087 49.76613917 -23.25 49.8125 C-21.991875 49.833125 -20.73375 49.85375 -19.4375 49.875 C-19.25574219 50.48988281 -19.07398438 51.10476562 -18.88671875 51.73828125 C-18.50966797 52.95064453 -18.50966797 52.95064453 -18.125 54.1875 C-17.75955078 55.38826172 -17.75955078 55.38826172 -17.38671875 56.61328125 C-16.37056252 59.03449301 -15.49244228 60.26004537 -13.4375 61.875 C-9.47476124 62.90237671 -7.32623027 63.28072469 -3.5625 61.5625 C-0.47331829 59.10932629 -0.46730582 58.07701724 0.125 54.0625 C0.08205856 51.42398733 -0.02546452 50.30499888 -1.87109375 48.37890625 C-5.55713408 45.99818402 -9.47588817 44.4353427 -13.5625 42.875 C-19.91225243 40.40132344 -23.93719376 37.55969981 -26.8125 31.25 C-29.47929715 23.75172518 -29.63351164 16.0121252 -26.41796875 8.66015625 C-20.78049084 -1.60409637 -10.82727292 -3.54347114 0 0 Z " fill="#FFFFFF" transform="translate(536.4375,15.125)"/>
<path d="M0 0 C6.18823091 4.52797383 8.85764998 9.51437771 10.5625 16.875 C10.75 19.9375 10.75 19.9375 10.5625 21.875 C7.81171116 22.79192961 6.20301087 22.98386083 3.375 22.9375 C1.4878125 22.9065625 1.4878125 22.9065625 -0.4375 22.875 C-1.4275 19.905 -2.4175 16.935 -3.4375 13.875 C-9.00247008 12.80007023 -9.00247008 12.80007023 -14.4375 13.875 C-16.75818605 15.82588592 -16.75818605 15.82588592 -17.125 19.3125 C-16.77938991 22.96625954 -16.77938991 22.96625954 -14.1875 25 C-11.09437039 26.73391588 -7.79153434 27.94495 -4.5 29.25 C2.36761272 32.05328112 6.82154944 34.78621675 10.5 41.3125 C12.79512139 48.71105903 12.82225196 58.14425983 10.375 65.5 C7.35244859 71.12819918 3.64853742 74.81009445 -2.4375 76.875 C-9.10989055 77.49628126 -15.85199549 78.06412838 -21.4375 73.875 C-28.05064275 67.26185725 -29.82309665 60.02749126 -30.4375 50.875 C-27.68671116 49.95807039 -26.07801087 49.76613917 -23.25 49.8125 C-21.991875 49.833125 -20.73375 49.85375 -19.4375 49.875 C-19.25574219 50.48988281 -19.07398438 51.10476562 -18.88671875 51.73828125 C-18.50966797 52.95064453 -18.50966797 52.95064453 -18.125 54.1875 C-17.75955078 55.38826172 -17.75955078 55.38826172 -17.38671875 56.61328125 C-16.37056252 59.03449301 -15.49244228 60.26004537 -13.4375 61.875 C-9.47476124 62.90237671 -7.32623027 63.28072469 -3.5625 61.5625 C-0.47331829 59.10932629 -0.46730582 58.07701724 0.125 54.0625 C0.08205856 51.42398733 -0.02546452 50.30499888 -1.87109375 48.37890625 C-5.55713408 45.99818402 -9.47588817 44.4353427 -13.5625 42.875 C-19.91225243 40.40132344 -23.93719376 37.55969981 -26.8125 31.25 C-29.47929715 23.75172518 -29.63351164 16.0121252 -26.41796875 8.66015625 C-20.78049084 -1.60409637 -10.82727292 -3.54347114 0 0 Z " fill="#FFFFFF" transform="translate(376.4375,15.125)"/>
<path d="M0 0 C12.54 0 25.08 0 38 0 C38 4.29 38 8.58 38 13 C29.09 13 20.18 13 11 13 C11 18.61 11 24.22 11 30 C19.25 30 27.5 30 36 30 C36 34.29 36 38.58 36 43 C27.75 43 19.5 43 11 43 C11 49.6 11 56.2 11 63 C20.24 63 29.48 63 39 63 C39 67.29 39 71.58 39 76 C26.13 76 13.26 76 0 76 C0 50.92 0 25.84 0 0 Z " fill="#FFFFFF" transform="translate(561,15)"/>
<path d="M0 0 C12.54 0 25.08 0 38 0 C38 4.29 38 8.58 38 13 C29.09 13 20.18 13 11 13 C11 18.61 11 24.22 11 30 C19.25 30 27.5 30 36 30 C36 34.29 36 38.58 36 43 C27.75 43 19.5 43 11 43 C11 49.6 11 56.2 11 63 C20.24 63 29.48 63 39 63 C39 67.29 39 71.58 39 76 C26.13 76 13.26 76 0 76 C0 50.92 0 25.84 0 0 Z " fill="#FFFFFF" transform="translate(401,15)"/>
<path d="M0 0 C12.54 0 25.08 0 38 0 C38 4.29 38 8.58 38 13 C29.09 13 20.18 13 11 13 C11 18.61 11 24.22 11 30 C19.25 30 27.5 30 36 30 C36 34.29 36 38.58 36 43 C27.75 43 19.5 43 11 43 C11 49.6 11 56.2 11 63 C20.24 63 29.48 63 39 63 C39 67.29 39 71.58 39 76 C26.13 76 13.26 76 0 76 C0 50.92 0 25.84 0 0 Z " fill="#FFFFFF" transform="translate(272,15)"/>
<path d="M0 0 C3.96 0 7.92 0 12 0 C12 25.08 12 50.16 12 76 C8.04 76 4.08 76 0 76 C0 50.92 0 25.84 0 0 Z " fill="#FFFFFF" transform="translate(190,15)"/>
<path d="M0 0 C2.475 0.99 2.475 0.99 5 2 C5 15.53 5 29.06 5 43 C1 44 1 44 -1.515625 42.7421875 C-2.41796875 42.12601563 -3.3203125 41.50984375 -4.25 40.875 C-5.21035156 40.22917969 -6.17070313 39.58335938 -7.16015625 38.91796875 C-8.09730469 38.28503906 -9.03445312 37.65210938 -10 37 C-11.55861273 36.05605145 -13.12058142 35.11759605 -14.6875 34.1875 C-15.780625 33.465625 -16.87375 32.74375 -18 32 C-18 31.34 -18 30.68 -18 30 C-18.71542969 29.73832031 -19.43085937 29.47664063 -20.16796875 29.20703125 C-23.12130605 27.94829852 -25.62579494 26.44105135 -28.3125 24.6875 C-31.7389696 22.45890188 -35.1794264 20.28485361 -38.6875 18.1875 C-39.780625 17.465625 -40.87375 16.74375 -42 16 C-42 15.34 -42 14.68 -42 14 C-42.598125 13.87625 -43.19625 13.7525 -43.8125 13.625 C-46 13 -46 13 -49 11 C-49 22.55 -49 34.1 -49 46 C-50.98 45.01 -52.96 44.02 -55 43 C-55 29.47 -55 15.94 -55 2 C-51 1 -51 1 -48.94921875 2.08203125 C-48.20285156 2.65308594 -47.45648438 3.22414062 -46.6875 3.8125 C-42.38103206 6.99471304 -38.02363847 10.04128834 -33.5625 13 C-32.59666992 13.64316162 -32.59666992 13.64316162 -31.61132812 14.29931641 C-27.83205449 16.80896045 -24.02557663 19.26831572 -20.1875 21.6875 C-15.78546794 24.4625515 -11.52030342 27.39349521 -7.2890625 30.421875 C-4.92685835 32.0504253 -2.46030015 33.52381991 0 35 C0 23.45 0 11.9 0 0 Z " fill="#F1F9F2" transform="translate(73,29)"/>
<path d="M0 0 C3.94120709 0.56302958 6.7508723 1.6791945 10 4 C10 4.66 10 5.32 10 6 C10.68707031 6.24363281 11.37414063 6.48726562 12.08203125 6.73828125 C15.51987776 8.22479319 18.56752106 10.13951822 21.6875 12.1875 C22.60680298 12.78425537 22.60680298 12.78425537 23.54467773 13.39306641 C28.03943625 16.32695736 32.45504164 19.3628895 36.81640625 22.4921875 C39.15241037 24.10524223 41.55235929 25.56324781 44 27 C42.73252321 30.80243037 41.44918868 31.21703681 38.0625 33.25 C33.21783571 36.21625007 28.58767327 39.37217386 23.99609375 42.71484375 C22 44 22 44 20 44 C20 43.34 20 42.68 20 42 C19.28972656 41.74089844 18.57945313 41.48179688 17.84765625 41.21484375 C14.81183649 39.91972723 12.20754406 38.35397495 9.4375 36.5625 C8.50808594 35.96566406 7.57867187 35.36882812 6.62109375 34.75390625 C5.75613281 34.17511719 4.89117187 33.59632812 4 33 C3.23300781 32.50757813 2.46601563 32.01515625 1.67578125 31.5078125 C0 30 0 30 -0.25 26.3125 C-0.1675 25.219375 -0.085 24.12625 0 23 C3.78471745 24.36087336 6.8006692 26.09321666 10.0625 28.4375 C10.89910156 29.03433594 11.73570313 29.63117188 12.59765625 30.24609375 C14.14359555 31.37475512 15.66935911 32.53186913 17.16796875 33.72265625 C18.93538353 35.21447575 18.93538353 35.21447575 21.25 35 C25.50045142 33.4543813 30.90718715 31.1856257 33 27 C32.32839844 26.77054688 31.65679687 26.54109375 30.96484375 26.3046875 C27.18876796 24.64301515 23.95957367 22.44842227 20.5625 20.125 C19.91990234 19.69058594 19.27730469 19.25617188 18.61523438 18.80859375 C17.34441472 17.94933904 16.07453837 17.08868735 14.80566406 16.2265625 C9.07135646 12.31904836 9.07135646 12.31904836 3.125 8.75 C2.09375 8.1725 1.0625 7.595 0 7 C0 4.69 0 2.38 0 0 Z " fill="#ECF8EE" transform="translate(27,48)"/>
<path d="M0 0 C1.32 0 2.64 0 4 0 C4 0.66 4 1.32 4 2 C4.70898438 2.2578125 5.41796875 2.515625 6.1484375 2.78125 C9.21204493 4.09062742 11.83322157 5.68495948 14.625 7.5 C15.56601562 8.1084375 16.50703125 8.716875 17.4765625 9.34375 C19.32245648 10.55529651 21.16285075 11.77523383 23 13 C23.1875 16.625 23.1875 16.625 23 20 C19.59687262 18.94124926 16.98646769 17.99097846 14 16 C14 15.34 14 14.68 14 14 C13.113125 13.7525 12.22625 13.505 11.3125 13.25 C7.89572865 11.96065232 5.7202252 10.40019871 3 8 C-1.01409454 9.37626099 -3.72309126 11.34304697 -7 14 C-7.66 14 -8.32 14 -9 14 C-6.30011247 16.94533185 -3.8886388 19.20033162 -0.375 21.125 C3 23 3 23 4.37890625 24.40234375 C6.48316933 26.47618375 8.80427855 27.8798355 11.3125 29.4375 C12.28445312 30.05496094 13.25640625 30.67242187 14.2578125 31.30859375 C15.83203022 32.27958559 17.42329688 33.22613388 19.0546875 34.09765625 C20.6875 35 20.6875 35 23 37 C23.375 40.75 23.375 40.75 23 44 C20.0625 43.1875 20.0625 43.1875 17 42 C16.67 41.01 16.34 40.02 16 39 C14.00595111 38.31573875 12.004629 37.65261551 10 37 C7.7394782 35.56987397 5.59204239 34.13336189 3.4375 32.5625 C-1.12597007 29.29052578 -1.12597007 29.29052578 -5.90234375 26.33984375 C-6.59457031 25.89769531 -7.28679688 25.45554687 -8 25 C-8 24.34 -8 23.68 -8 23 C-8.845625 22.7525 -9.69125 22.505 -10.5625 22.25 C-14.38427474 20.86026373 -17.51868063 19.08879162 -21 17 C-21 16.01 -21 15.02 -21 14 C-19.1640625 12.640625 -19.1640625 12.640625 -16.625 11.25 C-7.80349082 6.33279124 -7.80349082 6.33279124 0 0 Z " fill="#EDF8EF" transform="translate(46,12)"/>
<path d="M0 0 C0.66 0.33 1.32 0.66 2 1 C0.1875 3.5 0.1875 3.5 -2 6 C-2.99 6 -3.98 6 -5 6 C-5 5.01 -5 4.02 -5 3 C-2.625 1.25 -2.625 1.25 0 0 Z " fill="#C2E8C7" transform="translate(30,23)"/>
</svg>
